<mxfile host="Electron" modified="2024-05-05T20:18:11.670Z" agent="Mozilla/5.0 (Windows NT 10.0; Win64; x64) AppleWebKit/537.36 (KHTML, like Gecko) draw.io/24.2.5 Chrome/120.0.6099.109 Electron/28.1.0 Safari/537.36" etag="j0EkbbrHYN9oB6w3sko-" version="24.2.5" type="device">
  <diagram id="C5RBs43oDa-KdzZeNtuy" name="Page-1">
    <mxGraphModel dx="614" dy="300" grid="1" gridSize="10" guides="1" tooltips="1" connect="1" arrows="1" fold="1" page="1" pageScale="1" pageWidth="827" pageHeight="1169" math="0" shadow="0">
      <root>
        <mxCell id="WIyWlLk6GJQsqaUBKTNV-0" />
        <mxCell id="WIyWlLk6GJQsqaUBKTNV-1" parent="WIyWlLk6GJQsqaUBKTNV-0" />
        <mxCell id="aAbYjHP13J0JzVEMJLcZ-27" style="edgeStyle=orthogonalEdgeStyle;rounded=0;orthogonalLoop=1;jettySize=auto;html=1;exitX=1;exitY=0.5;exitDx=0;exitDy=0;entryX=0.5;entryY=1;entryDx=0;entryDy=0;" parent="WIyWlLk6GJQsqaUBKTNV-1" source="jPLNUifkSh8xmU5bVwgB-3" target="aAbYjHP13J0JzVEMJLcZ-7" edge="1">
          <mxGeometry relative="1" as="geometry">
            <Array as="points">
              <mxPoint x="585" y="320" />
            </Array>
          </mxGeometry>
        </mxCell>
        <mxCell id="HS5qw0G04564DpWhPaft-30" style="edgeStyle=orthogonalEdgeStyle;rounded=0;orthogonalLoop=1;jettySize=auto;html=1;entryX=0.75;entryY=0;entryDx=0;entryDy=0;" parent="WIyWlLk6GJQsqaUBKTNV-1" source="jPLNUifkSh8xmU5bVwgB-3" target="jPLNUifkSh8xmU5bVwgB-7" edge="1">
          <mxGeometry relative="1" as="geometry">
            <Array as="points">
              <mxPoint x="480" y="300" />
              <mxPoint x="480" y="150" />
              <mxPoint x="395" y="150" />
            </Array>
          </mxGeometry>
        </mxCell>
        <mxCell id="HS5qw0G04564DpWhPaft-38" value="set left value" style="edgeStyle=orthogonalEdgeStyle;rounded=0;orthogonalLoop=1;jettySize=auto;html=1;exitX=1;exitY=0.75;exitDx=0;exitDy=0;entryX=0.333;entryY=1.026;entryDx=0;entryDy=0;entryPerimeter=0;" parent="WIyWlLk6GJQsqaUBKTNV-1" source="jPLNUifkSh8xmU5bVwgB-3" target="-KSWSgEkuoDvi-AZuqQ9-0" edge="1">
          <mxGeometry relative="1" as="geometry">
            <Array as="points">
              <mxPoint x="460" y="335" />
              <mxPoint x="460" y="350" />
            </Array>
          </mxGeometry>
        </mxCell>
        <mxCell id="HS5qw0G04564DpWhPaft-60" style="edgeStyle=orthogonalEdgeStyle;rounded=0;orthogonalLoop=1;jettySize=auto;html=1;entryX=0.5;entryY=0;entryDx=0;entryDy=0;" parent="WIyWlLk6GJQsqaUBKTNV-1" source="jPLNUifkSh8xmU5bVwgB-3" target="HS5qw0G04564DpWhPaft-58" edge="1">
          <mxGeometry relative="1" as="geometry">
            <Array as="points">
              <mxPoint x="170" y="305" />
            </Array>
          </mxGeometry>
        </mxCell>
        <mxCell id="-KSWSgEkuoDvi-AZuqQ9-6" style="edgeStyle=orthogonalEdgeStyle;rounded=0;orthogonalLoop=1;jettySize=auto;html=1;exitX=0.75;exitY=1;exitDx=0;exitDy=0;entryX=0;entryY=0.5;entryDx=0;entryDy=0;" edge="1" parent="WIyWlLk6GJQsqaUBKTNV-1" source="jPLNUifkSh8xmU5bVwgB-3" target="-KSWSgEkuoDvi-AZuqQ9-4">
          <mxGeometry relative="1" as="geometry" />
        </mxCell>
        <mxCell id="jPLNUifkSh8xmU5bVwgB-3" value="ACCUMULATOR" style="rounded=0;whiteSpace=wrap;html=1;" parent="WIyWlLk6GJQsqaUBKTNV-1" vertex="1">
          <mxGeometry x="310" y="290" width="120" height="60" as="geometry" />
        </mxCell>
        <mxCell id="HS5qw0G04564DpWhPaft-4" value="(+1)" style="edgeStyle=orthogonalEdgeStyle;rounded=0;orthogonalLoop=1;jettySize=auto;html=1;entryX=0.75;entryY=1;entryDx=0;entryDy=0;" parent="WIyWlLk6GJQsqaUBKTNV-1" source="jPLNUifkSh8xmU5bVwgB-4" target="HS5qw0G04564DpWhPaft-2" edge="1">
          <mxGeometry relative="1" as="geometry">
            <Array as="points">
              <mxPoint x="530" y="1100" />
              <mxPoint x="530" y="1200" />
              <mxPoint x="440" y="1200" />
            </Array>
          </mxGeometry>
        </mxCell>
        <mxCell id="HS5qw0G04564DpWhPaft-19" style="edgeStyle=orthogonalEdgeStyle;rounded=0;orthogonalLoop=1;jettySize=auto;html=1;entryX=0.5;entryY=1;entryDx=0;entryDy=0;" parent="WIyWlLk6GJQsqaUBKTNV-1" source="jPLNUifkSh8xmU5bVwgB-4" target="jPLNUifkSh8xmU5bVwgB-9" edge="1">
          <mxGeometry relative="1" as="geometry" />
        </mxCell>
        <mxCell id="jPLNUifkSh8xmU5bVwgB-4" value="program counter" style="rounded=0;whiteSpace=wrap;html=1;" parent="WIyWlLk6GJQsqaUBKTNV-1" vertex="1">
          <mxGeometry x="390" y="1085" width="60" height="30" as="geometry" />
        </mxCell>
        <mxCell id="HS5qw0G04564DpWhPaft-26" style="edgeStyle=orthogonalEdgeStyle;rounded=0;orthogonalLoop=1;jettySize=auto;html=1;entryX=0.5;entryY=1;entryDx=0;entryDy=0;" parent="WIyWlLk6GJQsqaUBKTNV-1" source="jPLNUifkSh8xmU5bVwgB-7" target="jPLNUifkSh8xmU5bVwgB-13" edge="1">
          <mxGeometry relative="1" as="geometry">
            <Array as="points">
              <mxPoint x="370" y="260" />
              <mxPoint x="120" y="260" />
              <mxPoint x="120" y="450" />
              <mxPoint x="245" y="450" />
            </Array>
          </mxGeometry>
        </mxCell>
        <mxCell id="jPLNUifkSh8xmU5bVwgB-7" value="ALU" style="verticalLabelPosition=middle;verticalAlign=middle;html=1;shape=trapezoid;perimeter=trapezoidPerimeter;whiteSpace=wrap;size=0.23;arcSize=10;flipV=1;labelPosition=center;align=center;" parent="WIyWlLk6GJQsqaUBKTNV-1" vertex="1">
          <mxGeometry x="320" y="170" width="100" height="60" as="geometry" />
        </mxCell>
        <mxCell id="HS5qw0G04564DpWhPaft-15" style="edgeStyle=orthogonalEdgeStyle;rounded=0;orthogonalLoop=1;jettySize=auto;html=1;entryX=1;entryY=0.5;entryDx=0;entryDy=0;" parent="WIyWlLk6GJQsqaUBKTNV-1" source="jPLNUifkSh8xmU5bVwgB-9" target="HS5qw0G04564DpWhPaft-5" edge="1">
          <mxGeometry relative="1" as="geometry" />
        </mxCell>
        <mxCell id="jPLNUifkSh8xmU5bVwgB-9" value="Program memory" style="rounded=0;whiteSpace=wrap;html=1;" parent="WIyWlLk6GJQsqaUBKTNV-1" vertex="1">
          <mxGeometry x="360" y="970" width="120" height="60" as="geometry" />
        </mxCell>
        <mxCell id="jPLNUifkSh8xmU5bVwgB-10" value="Data memory" style="rounded=0;whiteSpace=wrap;html=1;" parent="WIyWlLk6GJQsqaUBKTNV-1" vertex="1">
          <mxGeometry x="230" y="570" width="120" height="60" as="geometry" />
        </mxCell>
        <mxCell id="jPLNUifkSh8xmU5bVwgB-12" value="Control unit" style="rounded=0;whiteSpace=wrap;html=1;" parent="WIyWlLk6GJQsqaUBKTNV-1" vertex="1">
          <mxGeometry x="390" y="555" width="100" height="90" as="geometry" />
        </mxCell>
        <mxCell id="aAbYjHP13J0JzVEMJLcZ-21" style="edgeStyle=orthogonalEdgeStyle;rounded=0;orthogonalLoop=1;jettySize=auto;html=1;exitX=0.5;exitY=0;exitDx=0;exitDy=0;entryX=0;entryY=0.75;entryDx=0;entryDy=0;" parent="WIyWlLk6GJQsqaUBKTNV-1" source="jPLNUifkSh8xmU5bVwgB-13" target="jPLNUifkSh8xmU5bVwgB-3" edge="1">
          <mxGeometry relative="1" as="geometry" />
        </mxCell>
        <mxCell id="jPLNUifkSh8xmU5bVwgB-13" value="MUX" style="shape=trapezoid;perimeter=trapezoidPerimeter;whiteSpace=wrap;html=1;fixedSize=1;" parent="WIyWlLk6GJQsqaUBKTNV-1" vertex="1">
          <mxGeometry x="210" y="370" width="70" height="30" as="geometry" />
        </mxCell>
        <mxCell id="aAbYjHP13J0JzVEMJLcZ-7" value="Buffer register" style="rounded=0;whiteSpace=wrap;html=1;" parent="WIyWlLk6GJQsqaUBKTNV-1" vertex="1">
          <mxGeometry x="540" y="220" width="90" height="30" as="geometry" />
        </mxCell>
        <mxCell id="HS5qw0G04564DpWhPaft-23" value="address" style="edgeStyle=orthogonalEdgeStyle;rounded=0;orthogonalLoop=1;jettySize=auto;html=1;" parent="WIyWlLk6GJQsqaUBKTNV-1" source="aAbYjHP13J0JzVEMJLcZ-16" target="jPLNUifkSh8xmU5bVwgB-10" edge="1">
          <mxGeometry relative="1" as="geometry">
            <Array as="points">
              <mxPoint x="340" y="426" />
            </Array>
          </mxGeometry>
        </mxCell>
        <mxCell id="HS5qw0G04564DpWhPaft-33" value="(+1)" style="edgeStyle=orthogonalEdgeStyle;rounded=0;orthogonalLoop=1;jettySize=auto;html=1;entryX=0.75;entryY=1;entryDx=0;entryDy=0;" parent="WIyWlLk6GJQsqaUBKTNV-1" source="aAbYjHP13J0JzVEMJLcZ-16" target="HS5qw0G04564DpWhPaft-31" edge="1">
          <mxGeometry relative="1" as="geometry">
            <Array as="points">
              <mxPoint x="510" y="426" />
              <mxPoint x="510" y="518" />
              <mxPoint x="442" y="518" />
            </Array>
          </mxGeometry>
        </mxCell>
        <mxCell id="aAbYjHP13J0JzVEMJLcZ-16" value="Address register" style="rounded=0;whiteSpace=wrap;html=1;" parent="WIyWlLk6GJQsqaUBKTNV-1" vertex="1">
          <mxGeometry x="400" y="402.5" width="50" height="47.5" as="geometry" />
        </mxCell>
        <mxCell id="aAbYjHP13J0JzVEMJLcZ-38" style="edgeStyle=orthogonalEdgeStyle;rounded=0;orthogonalLoop=1;jettySize=auto;html=1;exitX=0.75;exitY=1;exitDx=0;exitDy=0;" parent="WIyWlLk6GJQsqaUBKTNV-1" source="jPLNUifkSh8xmU5bVwgB-3" edge="1">
          <mxGeometry relative="1" as="geometry">
            <mxPoint x="290" y="570" as="targetPoint" />
            <Array as="points">
              <mxPoint x="320" y="350" />
              <mxPoint x="320" y="453" />
              <mxPoint x="290" y="453" />
              <mxPoint x="290" y="570" />
            </Array>
          </mxGeometry>
        </mxCell>
        <mxCell id="HS5qw0G04564DpWhPaft-63" style="edgeStyle=orthogonalEdgeStyle;rounded=0;orthogonalLoop=1;jettySize=auto;html=1;entryX=0.75;entryY=1;entryDx=0;entryDy=0;" parent="WIyWlLk6GJQsqaUBKTNV-1" source="HS5qw0G04564DpWhPaft-0" target="HS5qw0G04564DpWhPaft-62" edge="1">
          <mxGeometry relative="1" as="geometry" />
        </mxCell>
        <mxCell id="HS5qw0G04564DpWhPaft-0" value="DataPath" style="whiteSpace=wrap;html=1;aspect=fixed;" parent="WIyWlLk6GJQsqaUBKTNV-1" vertex="1">
          <mxGeometry x="400" y="790" width="80" height="80" as="geometry" />
        </mxCell>
        <mxCell id="HS5qw0G04564DpWhPaft-14" style="edgeStyle=orthogonalEdgeStyle;rounded=0;orthogonalLoop=1;jettySize=auto;html=1;entryX=0.5;entryY=1;entryDx=0;entryDy=0;" parent="WIyWlLk6GJQsqaUBKTNV-1" source="HS5qw0G04564DpWhPaft-2" target="jPLNUifkSh8xmU5bVwgB-4" edge="1">
          <mxGeometry relative="1" as="geometry" />
        </mxCell>
        <mxCell id="HS5qw0G04564DpWhPaft-2" value="MUX" style="shape=trapezoid;perimeter=trapezoidPerimeter;whiteSpace=wrap;html=1;fixedSize=1;" parent="WIyWlLk6GJQsqaUBKTNV-1" vertex="1">
          <mxGeometry x="380" y="1150" width="80" height="30" as="geometry" />
        </mxCell>
        <mxCell id="HS5qw0G04564DpWhPaft-17" style="edgeStyle=orthogonalEdgeStyle;rounded=0;orthogonalLoop=1;jettySize=auto;html=1;entryX=0.5;entryY=1;entryDx=0;entryDy=0;" parent="WIyWlLk6GJQsqaUBKTNV-1" source="HS5qw0G04564DpWhPaft-5" target="HS5qw0G04564DpWhPaft-0" edge="1">
          <mxGeometry relative="1" as="geometry">
            <Array as="points">
              <mxPoint x="280" y="920" />
              <mxPoint x="440" y="920" />
            </Array>
          </mxGeometry>
        </mxCell>
        <mxCell id="HS5qw0G04564DpWhPaft-18" value="select next" style="edgeStyle=orthogonalEdgeStyle;rounded=0;orthogonalLoop=1;jettySize=auto;html=1;entryX=0.25;entryY=1;entryDx=0;entryDy=0;" parent="WIyWlLk6GJQsqaUBKTNV-1" source="HS5qw0G04564DpWhPaft-5" target="HS5qw0G04564DpWhPaft-2" edge="1">
          <mxGeometry relative="1" as="geometry">
            <Array as="points">
              <mxPoint x="280" y="1200" />
              <mxPoint x="400" y="1200" />
            </Array>
          </mxGeometry>
        </mxCell>
        <mxCell id="HS5qw0G04564DpWhPaft-66" style="edgeStyle=orthogonalEdgeStyle;rounded=0;orthogonalLoop=1;jettySize=auto;html=1;exitX=0.25;exitY=0;exitDx=0;exitDy=0;entryX=0.25;entryY=1;entryDx=0;entryDy=0;" parent="WIyWlLk6GJQsqaUBKTNV-1" source="HS5qw0G04564DpWhPaft-5" target="HS5qw0G04564DpWhPaft-62" edge="1">
          <mxGeometry relative="1" as="geometry">
            <Array as="points">
              <mxPoint x="250" y="975" />
            </Array>
          </mxGeometry>
        </mxCell>
        <mxCell id="HS5qw0G04564DpWhPaft-5" value="instuction decoder" style="rounded=0;whiteSpace=wrap;html=1;" parent="WIyWlLk6GJQsqaUBKTNV-1" vertex="1">
          <mxGeometry x="230" y="975" width="90" height="50" as="geometry" />
        </mxCell>
        <mxCell id="HS5qw0G04564DpWhPaft-65" style="edgeStyle=orthogonalEdgeStyle;rounded=0;orthogonalLoop=1;jettySize=auto;html=1;entryX=0.5;entryY=0;entryDx=0;entryDy=0;" parent="WIyWlLk6GJQsqaUBKTNV-1" source="HS5qw0G04564DpWhPaft-10" target="HS5qw0G04564DpWhPaft-0" edge="1">
          <mxGeometry relative="1" as="geometry" />
        </mxCell>
        <mxCell id="HS5qw0G04564DpWhPaft-10" value="I/O devices" style="shape=hexagon;perimeter=hexagonPerimeter2;whiteSpace=wrap;html=1;fixedSize=1;" parent="WIyWlLk6GJQsqaUBKTNV-1" vertex="1">
          <mxGeometry x="230" y="740" width="80" height="35" as="geometry" />
        </mxCell>
        <mxCell id="HS5qw0G04564DpWhPaft-21" style="edgeStyle=orthogonalEdgeStyle;rounded=0;orthogonalLoop=1;jettySize=auto;html=1;exitX=0.5;exitY=1;exitDx=0;exitDy=0;" parent="WIyWlLk6GJQsqaUBKTNV-1" source="jPLNUifkSh8xmU5bVwgB-12" target="jPLNUifkSh8xmU5bVwgB-12" edge="1">
          <mxGeometry relative="1" as="geometry" />
        </mxCell>
        <mxCell id="HS5qw0G04564DpWhPaft-27" style="edgeStyle=orthogonalEdgeStyle;rounded=0;orthogonalLoop=1;jettySize=auto;html=1;" parent="WIyWlLk6GJQsqaUBKTNV-1" source="aAbYjHP13J0JzVEMJLcZ-7" edge="1">
          <mxGeometry relative="1" as="geometry">
            <mxPoint x="350" y="169" as="targetPoint" />
            <Array as="points">
              <mxPoint x="585" y="130" />
              <mxPoint x="350" y="130" />
            </Array>
          </mxGeometry>
        </mxCell>
        <mxCell id="HS5qw0G04564DpWhPaft-29" style="edgeStyle=orthogonalEdgeStyle;rounded=0;orthogonalLoop=1;jettySize=auto;html=1;exitX=0.25;exitY=0;exitDx=0;exitDy=0;entryX=0.714;entryY=1;entryDx=0;entryDy=0;entryPerimeter=0;" parent="WIyWlLk6GJQsqaUBKTNV-1" source="jPLNUifkSh8xmU5bVwgB-10" target="jPLNUifkSh8xmU5bVwgB-13" edge="1">
          <mxGeometry relative="1" as="geometry" />
        </mxCell>
        <mxCell id="HS5qw0G04564DpWhPaft-32" value="" style="edgeStyle=orthogonalEdgeStyle;rounded=0;orthogonalLoop=1;jettySize=auto;html=1;entryX=0.5;entryY=1;entryDx=0;entryDy=0;shape=flexArrow;endWidth=8.16326530612245;endSize=3.7142857142857144;width=5.714285714285714;" parent="WIyWlLk6GJQsqaUBKTNV-1" source="jPLNUifkSh8xmU5bVwgB-12" target="HS5qw0G04564DpWhPaft-31" edge="1">
          <mxGeometry relative="1" as="geometry">
            <mxPoint x="425" y="555" as="sourcePoint" />
            <mxPoint x="425" y="450" as="targetPoint" />
            <Array as="points">
              <mxPoint x="425" y="510" />
            </Array>
          </mxGeometry>
        </mxCell>
        <mxCell id="HS5qw0G04564DpWhPaft-67" style="edgeStyle=orthogonalEdgeStyle;rounded=0;orthogonalLoop=1;jettySize=auto;html=1;exitX=0.5;exitY=0;exitDx=0;exitDy=0;entryX=0.5;entryY=1;entryDx=0;entryDy=0;" parent="WIyWlLk6GJQsqaUBKTNV-1" source="HS5qw0G04564DpWhPaft-31" target="aAbYjHP13J0JzVEMJLcZ-16" edge="1">
          <mxGeometry relative="1" as="geometry" />
        </mxCell>
        <mxCell id="HS5qw0G04564DpWhPaft-31" value="MUX" style="shape=trapezoid;perimeter=trapezoidPerimeter;whiteSpace=wrap;html=1;fixedSize=1;" parent="WIyWlLk6GJQsqaUBKTNV-1" vertex="1">
          <mxGeometry x="390" y="470" width="70" height="27.5" as="geometry" />
        </mxCell>
        <mxCell id="HS5qw0G04564DpWhPaft-36" value="set right value" style="edgeStyle=orthogonalEdgeStyle;rounded=0;orthogonalLoop=1;jettySize=auto;html=1;entryX=0.293;entryY=-0.011;entryDx=0;entryDy=0;entryPerimeter=0;shape=flexArrow;width=5.517241379310345;endSize=4.517241379310345;endWidth=9.988109393579073;" parent="WIyWlLk6GJQsqaUBKTNV-1" source="jPLNUifkSh8xmU5bVwgB-12" target="HS5qw0G04564DpWhPaft-37" edge="1">
          <mxGeometry relative="1" as="geometry">
            <mxPoint x="579.9999999999998" y="414.79999999999995" as="targetPoint" />
          </mxGeometry>
        </mxCell>
        <mxCell id="HS5qw0G04564DpWhPaft-50" style="edgeStyle=orthogonalEdgeStyle;rounded=0;orthogonalLoop=1;jettySize=auto;html=1;entryX=0;entryY=0.5;entryDx=0;entryDy=0;" parent="WIyWlLk6GJQsqaUBKTNV-1" source="HS5qw0G04564DpWhPaft-37" target="HS5qw0G04564DpWhPaft-45" edge="1">
          <mxGeometry relative="1" as="geometry">
            <Array as="points" />
          </mxGeometry>
        </mxCell>
        <mxCell id="HS5qw0G04564DpWhPaft-51" style="edgeStyle=orthogonalEdgeStyle;rounded=0;orthogonalLoop=1;jettySize=auto;html=1;entryX=0;entryY=0.5;entryDx=0;entryDy=0;" parent="WIyWlLk6GJQsqaUBKTNV-1" source="HS5qw0G04564DpWhPaft-37" target="HS5qw0G04564DpWhPaft-43" edge="1">
          <mxGeometry relative="1" as="geometry" />
        </mxCell>
        <mxCell id="HS5qw0G04564DpWhPaft-52" style="edgeStyle=orthogonalEdgeStyle;rounded=0;orthogonalLoop=1;jettySize=auto;html=1;entryX=0;entryY=0.5;entryDx=0;entryDy=0;" parent="WIyWlLk6GJQsqaUBKTNV-1" source="HS5qw0G04564DpWhPaft-37" target="HS5qw0G04564DpWhPaft-44" edge="1">
          <mxGeometry relative="1" as="geometry">
            <Array as="points" />
          </mxGeometry>
        </mxCell>
        <mxCell id="HS5qw0G04564DpWhPaft-37" value="comparator" style="shape=trapezoid;perimeter=trapezoidPerimeter;whiteSpace=wrap;html=1;fixedSize=1;rotation=-90;" parent="WIyWlLk6GJQsqaUBKTNV-1" vertex="1">
          <mxGeometry x="580" y="360" width="120" height="60" as="geometry" />
        </mxCell>
        <mxCell id="HS5qw0G04564DpWhPaft-43" value="Z" style="whiteSpace=wrap;html=1;aspect=fixed;" parent="WIyWlLk6GJQsqaUBKTNV-1" vertex="1">
          <mxGeometry x="770" y="375" width="30" height="30" as="geometry" />
        </mxCell>
        <mxCell id="HS5qw0G04564DpWhPaft-44" value="GT" style="whiteSpace=wrap;html=1;aspect=fixed;" parent="WIyWlLk6GJQsqaUBKTNV-1" vertex="1">
          <mxGeometry x="770" y="405" width="30" height="30" as="geometry" />
        </mxCell>
        <mxCell id="HS5qw0G04564DpWhPaft-45" value="LT" style="whiteSpace=wrap;html=1;aspect=fixed;" parent="WIyWlLk6GJQsqaUBKTNV-1" vertex="1">
          <mxGeometry x="770" y="345" width="30" height="30" as="geometry" />
        </mxCell>
        <mxCell id="HS5qw0G04564DpWhPaft-53" value="compare" style="text;html=1;align=center;verticalAlign=middle;whiteSpace=wrap;rounded=0;" parent="WIyWlLk6GJQsqaUBKTNV-1" vertex="1">
          <mxGeometry x="670" y="370" width="50" height="30" as="geometry" />
        </mxCell>
        <mxCell id="HS5qw0G04564DpWhPaft-59" style="edgeStyle=orthogonalEdgeStyle;rounded=0;orthogonalLoop=1;jettySize=auto;html=1;entryX=0.25;entryY=1;entryDx=0;entryDy=0;" parent="WIyWlLk6GJQsqaUBKTNV-1" source="HS5qw0G04564DpWhPaft-58" target="jPLNUifkSh8xmU5bVwgB-13" edge="1">
          <mxGeometry relative="1" as="geometry" />
        </mxCell>
        <mxCell id="HS5qw0G04564DpWhPaft-58" value="I/O devices" style="shape=hexagon;perimeter=hexagonPerimeter2;whiteSpace=wrap;html=1;fixedSize=1;" parent="WIyWlLk6GJQsqaUBKTNV-1" vertex="1">
          <mxGeometry x="130" y="325" width="80" height="35" as="geometry" />
        </mxCell>
        <mxCell id="HS5qw0G04564DpWhPaft-64" style="edgeStyle=orthogonalEdgeStyle;rounded=0;orthogonalLoop=1;jettySize=auto;html=1;entryX=0.5;entryY=1;entryDx=0;entryDy=0;" parent="WIyWlLk6GJQsqaUBKTNV-1" source="HS5qw0G04564DpWhPaft-62" target="HS5qw0G04564DpWhPaft-10" edge="1">
          <mxGeometry relative="1" as="geometry" />
        </mxCell>
        <mxCell id="HS5qw0G04564DpWhPaft-62" value="MUX" style="shape=trapezoid;perimeter=trapezoidPerimeter;whiteSpace=wrap;html=1;fixedSize=1;direction=east;" parent="WIyWlLk6GJQsqaUBKTNV-1" vertex="1">
          <mxGeometry x="230" y="815" width="80" height="30" as="geometry" />
        </mxCell>
        <mxCell id="HS5qw0G04564DpWhPaft-69" style="edgeStyle=orthogonalEdgeStyle;rounded=0;orthogonalLoop=1;jettySize=auto;html=1;" parent="WIyWlLk6GJQsqaUBKTNV-1" source="HS5qw0G04564DpWhPaft-68" edge="1">
          <mxGeometry relative="1" as="geometry">
            <mxPoint x="540" y="990" as="targetPoint" />
          </mxGeometry>
        </mxCell>
        <mxCell id="HS5qw0G04564DpWhPaft-68" value="MC NOT REALISED" style="text;html=1;align=center;verticalAlign=middle;whiteSpace=wrap;rounded=0;" parent="WIyWlLk6GJQsqaUBKTNV-1" vertex="1">
          <mxGeometry x="640" y="985" width="60" height="30" as="geometry" />
        </mxCell>
        <mxCell id="-KSWSgEkuoDvi-AZuqQ9-7" style="edgeStyle=orthogonalEdgeStyle;rounded=0;orthogonalLoop=1;jettySize=auto;html=1;entryX=0.75;entryY=0;entryDx=0;entryDy=0;" edge="1" parent="WIyWlLk6GJQsqaUBKTNV-1" source="-KSWSgEkuoDvi-AZuqQ9-0" target="HS5qw0G04564DpWhPaft-37">
          <mxGeometry relative="1" as="geometry" />
        </mxCell>
        <mxCell id="-KSWSgEkuoDvi-AZuqQ9-0" value="MUX" style="shape=trapezoid;perimeter=trapezoidPerimeter;whiteSpace=wrap;html=1;fixedSize=1;rotation=90;" vertex="1" parent="WIyWlLk6GJQsqaUBKTNV-1">
          <mxGeometry x="540" y="350" width="60" height="20" as="geometry" />
        </mxCell>
        <mxCell id="-KSWSgEkuoDvi-AZuqQ9-5" style="edgeStyle=orthogonalEdgeStyle;rounded=0;orthogonalLoop=1;jettySize=auto;html=1;entryX=0.75;entryY=1;entryDx=0;entryDy=0;" edge="1" parent="WIyWlLk6GJQsqaUBKTNV-1" source="-KSWSgEkuoDvi-AZuqQ9-4" target="-KSWSgEkuoDvi-AZuqQ9-0">
          <mxGeometry relative="1" as="geometry" />
        </mxCell>
        <mxCell id="-KSWSgEkuoDvi-AZuqQ9-4" value="data&lt;div&gt;count&lt;/div&gt;" style="whiteSpace=wrap;html=1;aspect=fixed;" vertex="1" parent="WIyWlLk6GJQsqaUBKTNV-1">
          <mxGeometry x="480" y="360" width="30" height="30" as="geometry" />
        </mxCell>
      </root>
    </mxGraphModel>
  </diagram>
</mxfile>
